<?xml version="1.0" encoding="utf-8"?>
<!-- Generator: Adobe Illustrator 19.0.0, SVG Export Plug-In . SVG Version: 6.00 Build 0)  -->
<svg version="1.1" id="Layer_1" xmlns="http://www.w3.org/2000/svg" xmlns:xlink="http://www.w3.org/1999/xlink" x="0px" y="0px"
	 viewBox="-545 358.9 100 125" style="enable-background:new -545 358.9 100 125;" xml:space="preserve">
<style type="text/css">
	.st0{fill:#259389;}
</style>
<g transform="translate(0,-952.36216)">
	<path class="st0" d="M-510.4,1330.3l-15.6,15.6v66.4c20.7,0,41.3,0,62,0v-82L-510.4,1330.3z M-509,1332.3h43v78h-58v-63h15V1332.3z
		 M-511,1333.7v11.6h-11.6L-511,1333.7z"/>
	<path class="st0" d="M-479.2,1378.6c0,0.7,0,1.3,0,2h-31.7v-2H-479.2z"/>
	<path class="st0" d="M-479.2,1388.2c0,0.7,0,1.3,0,2h-31.7v-2H-479.2z"/>
	<path class="st0" d="M-479.2,1397.9c0,0.7,0,1.3,0,2h-31.7v-2H-479.2z"/>
	<path class="st0" d="M-479.2,1368.9c0,0.7,0,1.3,0,2h-31.7v-2H-479.2z"/>
	<path class="st0" d="M-479.2,1359.3c0,0.7,0,1.3,0,2h-31.7v-2H-479.2z"/>
</g>
</svg>
