<?xml version="1.0" encoding="utf-8"?>
<!-- Generator: Adobe Illustrator 19.0.0, SVG Export Plug-In . SVG Version: 6.00 Build 0)  -->
<svg version="1.1" id="Layer_1" xmlns="http://www.w3.org/2000/svg" xmlns:xlink="http://www.w3.org/1999/xlink" x="0px" y="0px"
	 viewBox="-545 358.9 100 125" style="enable-background:new -545 358.9 100 125;" xml:space="preserve">
<style type="text/css">
	.st0{fill:#F29030;}
</style>
<path class="st0" d="M-477.9,398.8h-2.5v-21.9c0.8-0.4,1.3-1.1,1.3-2.1v-0.2c0-1.3-1-2.3-2.3-2.3h-7.3v-1.5h-10.7v1.5h-7.8
	c-1.3,0-2.3,1-2.3,2.3v0.2c0,1.1,0.8,2.1,1.9,2.2v21.8h-2.5c-5.5,0-9.9,4.4-9.9,9.9v43.5c0,5.3,4.1,9.6,9.4,9.9c0.2,2.2,2,4,4.3,4
	c2.3,0,4.1-1.7,4.3-4h16.1c0.2,2.2,2.1,4,4.3,4c2.3,0,4.1-1.8,4.3-4c5.1-0.4,9.1-4.7,9.1-9.9v-43.5
	C-468,403.2-472.5,398.8-477.9,398.8z M-505.2,377.1h22.1v21.7h-22.1V377.1z M-502,451.5c0,0.5-0.4,0.9-0.9,0.9
	c-0.5,0-0.9-0.4-0.9-0.9v-41c0-0.5,0.4-0.9,0.9-0.9c0.5,0,0.9,0.4,0.9,0.9V451.5z M-510.9,451.5c0,0.5-0.4,0.9-0.9,0.9
	c-0.5,0-0.9-0.4-0.9-0.9v-41c0-0.5,0.4-0.9,0.9-0.9c0.5,0,0.9,0.4,0.9,0.9V451.5z M-493.2,451.5c0,0.5-0.4,0.9-0.9,0.9
	s-0.9-0.4-0.9-0.9v-41c0-0.5,0.4-0.9,0.9-0.9s0.9,0.4,0.9,0.9V451.5z M-485.9,410.5c0-0.5,0.4-0.9,0.9-0.9s0.9,0.4,0.9,0.9v41
	c0,0.5-0.4,0.9-0.9,0.9s-0.9-0.4-0.9-0.9V410.5z M-475.3,451.5c0,0.5-0.4,0.9-0.9,0.9s-0.9-0.4-0.9-0.9v-41c0-0.5,0.4-0.9,0.9-0.9
	s0.9,0.4,0.9,0.9V451.5z"/>
</svg>
