<?xml version="1.0" encoding="utf-8"?>
<!-- Generator: Adobe Illustrator 19.0.0, SVG Export Plug-In . SVG Version: 6.00 Build 0)  -->
<svg version="1.1" id="Layer_1" xmlns="http://www.w3.org/2000/svg" xmlns:xlink="http://www.w3.org/1999/xlink" x="0px" y="0px"
	 viewBox="-556 337.4 137.3 146.4" style="enable-background:new -556 337.4 137.3 146.4;" xml:space="preserve">
<style type="text/css">
	.st0{fill:#FFFFFF;}
	.st1{fill:#0D625A;}
	.st2{font-family:'MyriadPro-Regular';}
	.st3{font-size:49px;}
</style>
<g>
	<g>
		<path class="st0" d="M-476.1,450.6c-0.2-0.2-0.3-0.3-0.5-0.5c0,0,0,0,0,0c-0.1-0.1-0.3-0.3-0.4-0.4c-0.1-0.1-0.1-0.1-0.2-0.2
			c-2.2-1.9-4.5-3.6-5-8.6c-2.1-23.1-4.2-32.3-19.7-37.5c-2.4-0.8-3.2-1.9-3.8-2.9c-0.1-0.2-0.2-0.3-0.2-0.5c0,0,0,0,0,0
			c-0.5-0.7-1.2-1.3-2.1-1.6c-0.5-0.2-1-0.2-1.5-0.2c-0.5,0-1,0.1-1.5,0.2c-0.9,0.3-1.6,0.9-2.1,1.6l0,0c-0.1,0.2-0.2,0.3-0.3,0.5
			c-0.6,1-1.4,2.1-3.8,2.9c-15.6,5.1-17.7,14.4-19.7,37.5c-0.4,5-2.8,6.7-5,8.6c-0.1,0.1-0.1,0.1-0.2,0.2c-0.2,0.1-0.3,0.3-0.5,0.4
			c0,0,0,0,0,0c-0.2,0.1-0.3,0.3-0.4,0.4c0,0,0,0,0,0c-1,1-1.6,2.4-1.6,3.9c0,2.7,1.9,5,4.4,5.6c0.3,0.1,0.6,0.1,0.9,0.2
			c6,1.1,12.1,1.9,18.3,2.3c3.8,0.3,7.5,0.4,11.4,0.4h0.1c3.8,0,7.6-0.1,11.3-0.4c6.4-0.4,12.6-1.2,18.8-2.4
			c2.7-0.5,4.8-2.9,4.8-5.7C-474.6,453-475.1,451.6-476.1,450.6z M-500.9,466.3c-0.1,0-0.2,0-0.3,0c-2.7,0.1-5.5,0.2-8.2,0.2h-0.1
			c-2.8,0-5.6-0.1-8.4-0.2c0,0,0,0,0,0c-0.1,0-0.1,0-0.2,0c-0.7,0-1.3,0.6-1.3,1.3c0,0.2,0,0.4,0.1,0.6c0,0.1,0.1,0.2,0.1,0.2
			c0,0,0,0,0,0c1.5,2.2,3.8,3.9,6.5,4.7c1,0.3,2,0.4,3.1,0.4c1.1,0,2.1-0.1,3.1-0.4c2.7-0.8,5-2.5,6.5-4.7c0-0.1,0.1-0.1,0.1-0.2
			c0.1-0.2,0.1-0.4,0.1-0.6C-499.7,466.9-500.2,466.3-500.9,466.3z"/>
	</g>
</g>
<circle class="st1" cx="-460.4" cy="380.7" r="31.9"/>
<text transform="matrix(1 0 0 1 -474.0003 395.06)" class="st0 st2 st3">4</text>
</svg>
