<?xml version="1.0" encoding="utf-8"?>
<!-- Generator: Adobe Illustrator 19.0.0, SVG Export Plug-In . SVG Version: 6.00 Build 0)  -->
<svg version="1.1" id="Layer_1" xmlns="http://www.w3.org/2000/svg" xmlns:xlink="http://www.w3.org/1999/xlink" x="0px" y="0px"
	 viewBox="-550 364.4 90 112.5" style="enable-background:new -550 364.4 90 112.5;" xml:space="preserve">
<style type="text/css">
	.st0{fill:#71635D;}
</style>
<g>
	<path class="st0" d="M-524.2,421.6c0.2,0,0.4-0.1,0.5-0.3l2.1-4.3c0.1-0.2,0-0.5-0.2-0.7c-0.2-0.1-0.5,0-0.7,0.2l-2.1,4.3
		c-0.1,0.2,0,0.5,0.2,0.7C-524.4,421.6-524.3,421.6-524.2,421.6z"/>
	<path class="st0" d="M-531.1,435.4c-0.2-0.1-0.5,0-0.7,0.2l-2.1,4.3c-0.1,0.2,0,0.5,0.2,0.7c0.1,0,0.1,0,0.2,0
		c0.2,0,0.4-0.1,0.5-0.3l2.1-4.3C-530.7,435.8-530.8,435.5-531.1,435.4z"/>
	<path class="st0" d="M-528.8,431.2c0.2,0,0.4-0.1,0.5-0.3l2.1-4.3c0.1-0.2,0-0.5-0.2-0.7c-0.3-0.1-0.5,0-0.7,0.2l-2.1,4.3
		c-0.1,0.2,0,0.5,0.2,0.7C-528.9,431.1-528.9,431.2-528.8,431.2z"/>
	<path class="st0" d="M-520.2,413.6c0.2,0,0.4-0.1,0.5-0.3l2.1-4.3c0.1-0.2,0-0.5-0.2-0.7c-0.2-0.1-0.5,0-0.7,0.2l-2.1,4.3
		c-0.1,0.2,0,0.5,0.2,0.7C-520.4,413.6-520.3,413.6-520.2,413.6z"/>
	<path class="st0" d="M-526.3,441.9c-0.3-0.1-0.5,0-0.7,0.2l-2,4.4c-0.1,0.2,0,0.5,0.2,0.7c0.1,0,0.1,0,0.2,0c0.2,0,0.4-0.1,0.5-0.3
		l2.1-4.3C-525.9,442.4-526,442.1-526.3,441.9z"/>
	<path class="st0" d="M-521.7,432.4c-0.2-0.1-0.5,0-0.7,0.2l-2.1,4.3c-0.1,0.2,0,0.5,0.2,0.7c0.1,0,0.1,0,0.2,0
		c0.2,0,0.4-0.1,0.5-0.3l2.1-4.3C-521.4,432.8-521.5,432.5-521.7,432.4z"/>
	<path class="st0" d="M-515.4,420.2c0.2,0,0.4-0.1,0.5-0.3l2.1-4.3c0.1-0.2,0-0.5-0.2-0.7c-0.3-0.1-0.5,0-0.7,0.2l-2.1,4.3
		c-0.1,0.2,0,0.5,0.2,0.7C-515.6,420.2-515.5,420.2-515.4,420.2z"/>
	<path class="st0" d="M-517.7,424.4c-0.2-0.1-0.5,0-0.7,0.2l-2.1,4.3c-0.1,0.2,0,0.5,0.2,0.7c0.1,0,0.1,0,0.2,0
		c0.2,0,0.4-0.1,0.5-0.3l2.1-4.3C-517.4,424.8-517.5,424.5-517.7,424.4z"/>
	<path class="st0" d="M-514.9,435.4c-0.2-0.1-0.5,0-0.7,0.2l-2.1,4.3c-0.1,0.2,0,0.5,0.2,0.7c0.1,0,0.1,0,0.2,0
		c0.2,0,0.4-0.1,0.5-0.3l2.1-4.3C-514.5,435.8-514.7,435.5-514.9,435.4z"/>
	<path class="st0" d="M-510.4,425.9c-0.3-0.1-0.5,0-0.7,0.2l-2,4.3c-0.1,0.2,0,0.5,0.2,0.7c0.1,0,0.1,0,0.2,0c0.2,0,0.4-0.1,0.5-0.3
		l2.1-4.3C-510,426.3-510.1,426-510.4,425.9z"/>
	<path class="st0" d="M-505.8,416.3c-0.2-0.1-0.5,0-0.7,0.2l-2.1,4.3c-0.1,0.2,0,0.5,0.2,0.7c0.1,0,0.1,0,0.2,0
		c0.2,0,0.4-0.1,0.5-0.3l2.1-4.3C-505.5,416.8-505.6,416.5-505.8,416.3z"/>
	<path class="st0" d="M-504.1,413.6c0.2,0,0.4-0.1,0.5-0.3l2.1-4.3c0.1-0.2,0-0.5-0.2-0.7c-0.2-0.1-0.5,0-0.7,0.2l-2.1,4.3
		c-0.1,0.2,0,0.5,0.2,0.7C-504.2,413.6-504.2,413.6-504.1,413.6z"/>
	<path class="st0" d="M-486.4,382.1c-2.7-5.7-8.5-9.3-14.8-9.3c-2.2,0-4.4,0.4-6.4,1.3c-2.2-1.7-4.7-2.5-7.4-2.5
		c-6.3,0-11.4,4.7-12,10.9c-4.8,1.7-8.1,6.2-8.1,11.4c0,6.3,4.9,11.5,11.2,12h3.6h10.8l-1.9,4.1c-0.1,0.2,0,0.5,0.2,0.7
		c0.1,0,0.1,0,0.2,0c0.2,0,0.4-0.1,0.5-0.3l2.1-4.3c0-0.1,0-0.1,0-0.2h13.9l-8.5,18.2l9.5-4.8l-13.3,27.8l17.8-32.6l-9.1,4.5
		l6.2-13.2l6.4-0.1c6-0.7,10.5-5.7,10.5-11.8C-475,387.5-480.1,382.3-486.4,382.1z M-486.5,403.8h-33.6h-3.6
		c-5.2-0.4-9.3-4.8-9.3-10c0-4.5,3-8.4,7.3-9.6l0.7-0.2v-0.7c0.2-5.4,4.6-9.7,10-9.7c2.4,0,4.7,0.8,6.5,2.4l0.5,0.4l0.6-0.3
		c2-0.9,4-1.4,6.1-1.4c5.8,0,11,3.4,13.3,8.7l0.3,0.6h0.8c5.5,0,9.9,4.4,9.9,9.9C-477,399.3-481.2,403.6-486.5,403.8z"/>
</g>
</svg>
